<?xml version="1.0" standalone="no"?>
<!DOCTYPE svg PUBLIC "-//W3C//DTD SVG 20010904//EN"
 "http://www.w3.org/TR/2001/REC-SVG-20010904/DTD/svg10.dtd">
<svg version="1.0" xmlns="http://www.w3.org/2000/svg"
 width="330.000000pt" height="330.000000pt" viewBox="0 0 330.000000 330.000000"
 preserveAspectRatio="xMidYMid meet">
<metadata>
Created by potrace 1.11, written by Peter Selinger 2001-2013
</metadata>
<g transform="translate(0.000000,330.000000) scale(0.100000,-0.100000)"
fill="#000000" stroke="none">
<path d="M1498 3295 c-2 -2 -21 -6 -43 -8 -61 -8 -166 -34 -242 -60 -457 -162
-783 -549 -868 -1032 -14 -77 -16 -200 -17 -836 0 -411 3 -756 6 -767 4 -12
22 -30 40 -42 58 -35 122 -21 150 34 14 27 17 117 19 786 2 415 7 771 11 790
67 324 232 573 493 746 45 30 84 54 87 54 3 0 33 13 68 29 225 105 502 125
745 55 417 -119 728 -468 798 -894 10 -66 14 -246 15 -813 0 -487 4 -735 11
-751 22 -47 90 -69 143 -44 60 27 58 -11 57 811 0 414 -3 763 -5 777 -3 14 -7
41 -10 60 -55 372 -298 728 -627 923 -217 128 -420 183 -677 185 -83 0 -152
-1 -154 -3z"/>
<path d="M2085 2270 c-60 -21 -155 -55 -210 -75 -266 -94 -383 -200 -440 -398
-25 -85 -26 -109 -27 -656 -1 -277 -5 -527 -10 -555 -31 -172 -184 -327 -358
-363 -25 -5 -180 -10 -345 -11 -272 -1 -302 -3 -324 -20 -55 -41 -56 -133 -1
-172 28 -20 40 -20 352 -19 286 1 331 3 397 20 151 40 267 119 378 257 l18 23
45 -57 c77 -96 195 -176 330 -220 49 -16 103 -19 520 -22 255 -2 475 0 488 3
73 18 98 121 43 176 -22 22 -39 29 -68 30 -21 0 -218 0 -437 1 -427 1 -470 5
-564 52 -103 52 -197 164 -232 276 -11 35 -15 129 -16 437 l-1 392 61 22 c34
12 79 30 101 39 22 10 72 29 110 44 196 74 328 206 391 391 23 70 27 98 29
220 2 77 -1 150 -6 162 -10 27 -65 63 -94 62 -11 0 -69 -17 -130 -39z m11
-277 c-12 -96 -88 -211 -175 -268 -26 -17 -281 -125 -296 -125 -4 0 4 81 10
112 16 74 70 158 128 200 30 22 298 126 326 127 11 1 12 -9 7 -46z"/>
</g>
</svg>
