<?xml version="1.0" encoding="UTF-8" standalone="no"?>
<svg
   version="1.1"
   x="0px"
   y="0px"
   viewBox="0 0 100 100"
   enable-background="new 0 0 100 100"
   xml:space="preserve"
   id="svg4"
   sodipodi:docname="clock.svg"
   inkscape:export-filename="clock.png"
   inkscape:export-xdpi="460.79999"
   inkscape:export-ydpi="460.79999"
   inkscape:version="1.1.2 (0a00cf5339, 2022-02-04)"
   xmlns:inkscape="http://www.inkscape.org/namespaces/inkscape"
   xmlns:sodipodi="http://sodipodi.sourceforge.net/DTD/sodipodi-0.dtd"
   xmlns="http://www.w3.org/2000/svg"
   xmlns:svg="http://www.w3.org/2000/svg"><defs
     id="defs8" /><sodipodi:namedview
     id="namedview6"
     pagecolor="#ffffff"
     bordercolor="#666666"
     borderopacity="1.0"
     inkscape:pageshadow="2"
     inkscape:pageopacity="0.0"
     inkscape:pagecheckerboard="0"
     showgrid="false"
     inkscape:zoom="8.73"
     inkscape:cx="42.840779"
     inkscape:cy="50"
     inkscape:window-width="1920"
     inkscape:window-height="1136"
     inkscape:window-x="0"
     inkscape:window-y="0"
     inkscape:window-maximized="1"
     inkscape:current-layer="svg4" /><path
     d="M53.5,46.7V25.6c0-2-1.6-3.5-3.5-3.5c-2,0-3.5,1.6-3.5,3.5v29.6c0.1,2,1.6,3.6,3.5,3.6c0.8,0,1.7-0.4,2.4-1.1L67.2,43  c1.4-1.4,1.4-3.7,0-5c-1.4-1.4-3.7-1.4-5,0L53.5,46.7z M50,5C25.2,5,5,25.2,5,50c0,24.8,20.2,45,45,45c24.8,0,45-20.2,45-45  C95,25.2,74.8,5,50,5L50,5z M50,85.5c-19.5,0-35.5-16-35.5-35.5c0-19.5,16-35.6,35.5-35.6c19.5,0,35.6,16,35.6,35.6  C85.6,69.5,69.5,85.5,50,85.5z"
     id="path2" /></svg>
