<?xml version="1.0" encoding="UTF-8" standalone="no"?>
<!-- Created with Inkscape (http://www.inkscape.org/) -->

<svg
   width="40"
   height="40"
   id="svg12291"
   sodipodi:version="0.32"
   inkscape:version="1.1.2 (0a00cf5339, 2022-02-04)"
   version="1.0"
   sodipodi:docname="location.svg"
   inkscape:export-filename="location.png"
   inkscape:export-xdpi="1152"
   inkscape:export-ydpi="1152"
   xmlns:inkscape="http://www.inkscape.org/namespaces/inkscape"
   xmlns:sodipodi="http://sodipodi.sourceforge.net/DTD/sodipodi-0.dtd"
   xmlns="http://www.w3.org/2000/svg"
   xmlns:svg="http://www.w3.org/2000/svg"
   xmlns:rdf="http://www.w3.org/1999/02/22-rdf-syntax-ns#"
   xmlns:cc="http://creativecommons.org/ns#"
   xmlns:dc="http://purl.org/dc/elements/1.1/">
  <defs
     id="defs12293" />
  <sodipodi:namedview
     id="base"
     pagecolor="#ffffff"
     bordercolor="#666666"
     borderopacity="1.0"
     gridtolerance="10000"
     guidetolerance="10"
     objecttolerance="10"
     inkscape:pageopacity="0.0"
     inkscape:pageshadow="2"
     inkscape:zoom="12.975001"
     inkscape:cx="21.772638"
     inkscape:cy="19.999998"
     inkscape:document-units="px"
     inkscape:current-layer="layer1"
     inkscape:window-width="1920"
     inkscape:window-height="1136"
     inkscape:window-x="0"
     inkscape:window-y="0"
     inkscape:pagecheckerboard="0"
     showgrid="false"
     inkscape:window-maximized="1" />
  <metadata
     id="metadata12296">
    <rdf:RDF>
      <cc:Work
         rdf:about="">
        <dc:format>image/svg+xml</dc:format>
        <dc:type
           rdf:resource="http://purl.org/dc/dcmitype/StillImage" />
      </cc:Work>
    </rdf:RDF>
  </metadata>
  <g
     inkscape:label="Layer 1"
     inkscape:groupmode="layer"
     id="layer1"
     transform="translate(-383.5714,-449.505)">
    <g
       id="g833"
       transform="translate(-4.999985,-0.007365)">
      <path
         style="color:#000000;display:inline;overflow:visible;visibility:visible;fill:#000000;fill-opacity:1;fill-rule:nonzero;stroke:none;stroke-width:6.22222;stroke-linecap:butt;stroke-linejoin:round;stroke-miterlimit:4;stroke-dashoffset:0;stroke-opacity:1;marker:none;marker-start:none;marker-mid:none;marker-end:none"
         d="m 414.57141,469.50509 c 0,3.312 -2.68801,6.00001 -6.00001,6.00001 -3.312,0 -6.00001,-2.68801 -6.00001,-6.00001 0,-3.31201 2.68801,-6.00001 6.00001,-6.00001 3.312,0 6.00001,2.688 6.00001,6.00001 z"
         id="path3671" />
      <path
         style="color:#000000;display:inline;overflow:visible;visibility:visible;fill:#000000;fill-opacity:1;fill-rule:nonzero;stroke:none;stroke-width:7;stroke-linecap:butt;stroke-linejoin:round;stroke-miterlimit:4;stroke-dasharray:none;stroke-dashoffset:0;stroke-opacity:1;marker:none"
         d="m 408.57139,451.51235 c -9.91414,0 -18.00002,8.08588 -18.00002,18.00002 0,9.91413 8.08588,18.00001 18.00002,18.00001 9.91413,0 18.00001,-8.08588 18.00001,-18.00001 0,-9.91414 -8.08588,-18.00002 -18.00001,-18.00002 z m 0,4.00001 c 7.74988,0 14.00001,6.25013 14.00001,14.00001 0,7.74988 -6.25013,14.00001 -14.00001,14.00001 -7.74989,0 -14.00002,-6.25013 -14.00002,-14.00001 0,-7.74988 6.25013,-14.00001 14.00002,-14.00001 z"
         id="path5561" />
    </g>
  </g>
</svg>
