<?xml version="1.0" encoding="UTF-8" standalone="no"?>
<!-- Generator: Adobe Illustrator 22.0.1, SVG Export Plug-In . SVG Version: 6.00 Build 0)  -->

<svg
   version="1.1"
   id="Capa_1"
   x="0px"
   y="0px"
   viewBox="0 0 200 88.7"
   style="enable-background:new 0 0 200 88.7;"
   xml:space="preserve"
   sodipodi:docname="logo.svg"
   inkscape:version="1.1.2 (0a00cf5339, 2022-02-04)"
   xmlns:inkscape="http://www.inkscape.org/namespaces/inkscape"
   xmlns:sodipodi="http://sodipodi.sourceforge.net/DTD/sodipodi-0.dtd"
   xmlns="http://www.w3.org/2000/svg"
   xmlns:svg="http://www.w3.org/2000/svg"><defs
   id="defs61" /><sodipodi:namedview
   id="namedview59"
   pagecolor="#ffffff"
   bordercolor="#666666"
   borderopacity="1.0"
   inkscape:pageshadow="2"
   inkscape:pageopacity="1"
   inkscape:pagecheckerboard="0"
   showgrid="false"
   inkscape:zoom="3.345"
   inkscape:cx="74.887892"
   inkscape:cy="44.394619"
   inkscape:window-width="1920"
   inkscape:window-height="1136"
   inkscape:window-x="0"
   inkscape:window-y="0"
   inkscape:window-maximized="1"
   inkscape:current-layer="g46" />
<style
   type="text/css"
   id="style2">
	.st0{fill:#FFFFFF;}
	.st1{fill:none;stroke:#FFFFFF;stroke-width:5.679;stroke-linecap:round;stroke-linejoin:round;stroke-miterlimit:10;}
</style>
<g
   id="g56">
	<g
   id="g46">
		<path
   class="st0"
   d="M11.4,77.7H9.9l-1.6-3c-0.2-0.3-0.4-0.5-0.6-0.7c-0.2-0.1-0.6-0.2-0.9-0.2H5.2v3.8H3.9v-9.2h3.9    c1,0,1.8,0.2,2.3,0.7c0.5,0.5,0.8,1.1,0.8,2c0,0.7-0.2,1.3-0.6,1.7c-0.4,0.5-1,0.7-1.7,0.9c0.5,0.1,0.8,0.5,1.1,1L11.4,77.7z     M7.7,72.8c0.7,0,1.2-0.1,1.5-0.4s0.5-0.7,0.5-1.2s-0.2-1-0.5-1.2c-0.3-0.3-0.8-0.4-1.5-0.4H5.2v3.2H7.7z"
   id="path4"
   style="fill:#00a960;fill-opacity:1" />
		<path
   class="st0"
   d="M14.9,77.2c-0.6-0.4-1.1-0.9-1.5-1.6c-0.3-0.7-0.5-1.5-0.5-2.5c0-1,0.2-1.8,0.5-2.5c0.3-0.7,0.8-1.3,1.5-1.6    c0.6-0.4,1.4-0.6,2.3-0.6c0.9,0,1.6,0.2,2.3,0.6c0.6,0.4,1.1,0.9,1.5,1.6c0.3,0.7,0.5,1.5,0.5,2.5c0,1-0.2,1.8-0.5,2.5    c-0.3,0.7-0.8,1.3-1.5,1.6c-0.6,0.4-1.4,0.6-2.3,0.6C16.3,77.8,15.6,77.6,14.9,77.2z M19.4,75.8c0.5-0.6,0.8-1.5,0.8-2.7    c0-1.2-0.3-2.1-0.8-2.7c-0.5-0.6-1.2-0.9-2.2-0.9c-0.9,0-1.6,0.3-2.1,0.9c-0.5,0.6-0.8,1.5-0.8,2.7c0,1.2,0.3,2.1,0.8,2.7    c0.5,0.6,1.2,0.9,2.1,0.9C18.1,76.7,18.8,76.4,19.4,75.8z"
   id="path6"
   style="fill:#00a960;fill-opacity:1" />
		<path
   class="st0"
   d="M30.4,73.8c0.3,0.4,0.4,0.9,0.4,1.4c0,0.8-0.3,1.4-0.8,1.9s-1.3,0.7-2.3,0.7h-4v-9.2h3.9    c0.9,0,1.7,0.2,2.2,0.6c0.5,0.4,0.8,1,0.8,1.8c0,0.5-0.1,0.9-0.4,1.3c-0.3,0.4-0.6,0.6-1.1,0.8C29.7,73.1,30.1,73.4,30.4,73.8z     M25,72.5h2.3c1.3,0,1.9-0.5,1.9-1.5c0-0.5-0.2-0.9-0.5-1.1s-0.8-0.4-1.5-0.4H25V72.5z M29,76.3c0.3-0.2,0.5-0.6,0.5-1.1    c0-0.5-0.2-0.9-0.5-1.2c-0.3-0.3-0.8-0.4-1.5-0.4H25v3.1h2.5C28.2,76.6,28.7,76.5,29,76.3z"
   id="path8"
   style="fill:#00a960;fill-opacity:1" />
		<path
   class="st0"
   d="M34.6,77.2c-0.6-0.4-1.1-0.9-1.5-1.6c-0.3-0.7-0.5-1.5-0.5-2.5c0-1,0.2-1.8,0.5-2.5c0.3-0.7,0.8-1.3,1.5-1.6    c0.6-0.4,1.4-0.6,2.3-0.6c0.9,0,1.6,0.2,2.3,0.6c0.6,0.4,1.1,0.9,1.5,1.6c0.3,0.7,0.5,1.5,0.5,2.5c0,1-0.2,1.8-0.5,2.5    c-0.3,0.7-0.8,1.3-1.5,1.6c-0.6,0.4-1.4,0.6-2.3,0.6C36,77.8,35.3,77.6,34.6,77.2z M39.1,75.8c0.5-0.6,0.8-1.5,0.8-2.7    c0-1.2-0.3-2.1-0.8-2.7c-0.5-0.6-1.2-0.9-2.2-0.9c-0.9,0-1.6,0.3-2.1,0.9C34.3,71,34,71.9,34,73.1c0,1.2,0.3,2.1,0.8,2.7    c0.5,0.6,1.2,0.9,2.1,0.9C37.8,76.7,38.5,76.4,39.1,75.8z"
   id="path10"
   style="fill:#00a960;fill-opacity:1" />
		<path
   class="st0"
   d="M45,77.7v-8.1h-3.1v-1.1h7.6v1.1h-3.1v8.1H45z"
   id="path12"
   style="fill:#00a960;fill-opacity:1" />
		<path
   class="st0"
   d="M51.1,77.7v-9.2h1.3v9.2H51.1z"
   id="path14"
   style="fill:#00a960;fill-opacity:1" />
		<path
   class="st0"
   d="M56.7,77.2c-0.7-0.4-1.2-0.9-1.5-1.6c-0.4-0.7-0.5-1.5-0.5-2.5c0-1,0.2-1.8,0.5-2.5c0.4-0.7,0.9-1.3,1.5-1.6    c0.7-0.4,1.4-0.6,2.3-0.6c0.6,0,1.2,0.1,1.7,0.3s1,0.5,1.4,0.8l-0.5,1c-0.4-0.4-0.9-0.6-1.3-0.8c-0.4-0.2-0.9-0.2-1.4-0.2    c-1,0-1.7,0.3-2.2,0.9s-0.8,1.5-0.8,2.7c0,1.2,0.3,2,0.8,2.7s1.3,0.9,2.2,0.9c0.5,0,0.9-0.1,1.4-0.2s0.8-0.4,1.3-0.8l0.5,1    c-0.4,0.4-0.8,0.6-1.4,0.8s-1.1,0.3-1.7,0.3C58.2,77.8,57.4,77.6,56.7,77.2z"
   id="path16"
   style="fill:#00a960;fill-opacity:1" />
		<path
   class="st0"
   d="M65.1,77.5c-0.6-0.2-1.1-0.5-1.5-0.9l0.5-1c0.5,0.4,0.9,0.6,1.4,0.8c0.5,0.2,1,0.2,1.6,0.2    c0.7,0,1.2-0.1,1.6-0.4c0.4-0.3,0.6-0.6,0.6-1.1c0-0.4-0.2-0.7-0.5-0.9c-0.3-0.2-0.9-0.4-1.7-0.6c-0.7-0.2-1.3-0.3-1.8-0.5    c-0.5-0.2-0.8-0.5-1.1-0.8c-0.3-0.3-0.4-0.8-0.4-1.3c0-0.5,0.1-1,0.4-1.4c0.3-0.4,0.7-0.7,1.2-1c0.5-0.2,1.1-0.3,1.8-0.3    c0.6,0,1.2,0.1,1.8,0.3s1,0.5,1.4,0.8l-0.5,1c-0.4-0.3-0.9-0.6-1.3-0.8c-0.4-0.2-0.9-0.3-1.4-0.3c-0.7,0-1.2,0.1-1.6,0.4    c-0.4,0.3-0.6,0.7-0.6,1.1c0,0.4,0.2,0.7,0.5,0.9c0.3,0.2,0.9,0.4,1.6,0.6c0.8,0.2,1.4,0.4,1.9,0.5c0.5,0.2,0.9,0.4,1.1,0.8    c0.3,0.3,0.4,0.8,0.4,1.3c0,0.5-0.1,1-0.4,1.4c-0.3,0.4-0.7,0.7-1.2,0.9s-1.2,0.3-1.9,0.3C66.4,77.8,65.7,77.7,65.1,77.5z"
   id="path18"
   style="fill:#00a960;fill-opacity:1" />
		<path
   class="st0"
   d="M76.5,77.7v-9.2h5.8v1.1h-4.5v2.9h4.3v1.1h-4.3v4.1H76.5z"
   id="path20"
   style="fill:#00a960;fill-opacity:1" />
		<path
   class="st0"
   d="M85.7,77.2c-0.6-0.4-1.1-0.9-1.5-1.6c-0.3-0.7-0.5-1.5-0.5-2.5c0-1,0.2-1.8,0.5-2.5c0.3-0.7,0.8-1.3,1.5-1.6    c0.6-0.4,1.4-0.6,2.3-0.6c0.9,0,1.6,0.2,2.3,0.6c0.6,0.4,1.1,0.9,1.5,1.6c0.3,0.7,0.5,1.5,0.5,2.5c0,1-0.2,1.8-0.5,2.5    c-0.3,0.7-0.8,1.3-1.5,1.6c-0.6,0.4-1.4,0.6-2.3,0.6C87.1,77.8,86.4,77.6,85.7,77.2z M90.1,75.8c0.5-0.6,0.8-1.5,0.8-2.7    c0-1.2-0.3-2.1-0.8-2.7c-0.5-0.6-1.2-0.9-2.2-0.9c-0.9,0-1.6,0.3-2.1,0.9c-0.5,0.6-0.8,1.5-0.8,2.7c0,1.2,0.3,2.1,0.8,2.7    c0.5,0.6,1.2,0.9,2.1,0.9C88.9,76.7,89.6,76.4,90.1,75.8z"
   id="path22"
   style="fill:#00a960;fill-opacity:1" />
		<path
   class="st0"
   d="M102,77.7h-1.5l-1.6-3c-0.2-0.3-0.4-0.5-0.6-0.7c-0.2-0.1-0.6-0.2-0.9-0.2h-1.5v3.8h-1.3v-9.2h3.9    c1,0,1.8,0.2,2.3,0.7c0.5,0.5,0.8,1.1,0.8,2c0,0.7-0.2,1.3-0.6,1.7c-0.4,0.5-1,0.7-1.7,0.9c0.5,0.1,0.8,0.5,1.1,1L102,77.7z     M98.2,72.8c0.7,0,1.2-0.1,1.5-0.4s0.5-0.7,0.5-1.2s-0.2-1-0.5-1.2c-0.3-0.3-0.8-0.4-1.5-0.4h-2.4v3.2H98.2z"
   id="path24"
   style="fill:#00a960;fill-opacity:1" />
		<path
   class="st0"
   d="M115.5,68.5h1.1v9.2h-1.2l0-6.7l-2.7,5.2h-0.9l-2.8-5.1l0,6.6h-1.2v-9.2h1.1l3.3,6.4L115.5,68.5z"
   id="path26"
   style="fill:#00a960;fill-opacity:1" />
		<path
   class="st0"
   d="M119.1,77.7v-9.2h1.3v9.2H119.1z"
   id="path28"
   style="fill:#00a960;fill-opacity:1" />
		<path
   class="st0"
   d="M124.7,77.2c-0.7-0.4-1.2-0.9-1.5-1.6c-0.4-0.7-0.5-1.5-0.5-2.5c0-1,0.2-1.8,0.5-2.5c0.4-0.7,0.9-1.3,1.5-1.6    c0.7-0.4,1.4-0.6,2.3-0.6c0.6,0,1.2,0.1,1.8,0.3s1,0.5,1.4,0.8l-0.5,1c-0.4-0.4-0.9-0.6-1.3-0.8c-0.4-0.2-0.9-0.2-1.4-0.2    c-1,0-1.7,0.3-2.2,0.9s-0.8,1.5-0.8,2.7c0,1.2,0.3,2,0.8,2.7s1.3,0.9,2.2,0.9c0.5,0,0.9-0.1,1.4-0.2s0.8-0.4,1.3-0.8l0.5,1    c-0.4,0.4-0.8,0.6-1.4,0.8s-1.1,0.3-1.8,0.3C126.1,77.8,125.3,77.6,124.7,77.2z"
   id="path30"
   style="fill:#00a960;fill-opacity:1" />
		<path
   class="st0"
   d="M139.7,77.7h-1.5l-1.6-3c-0.2-0.3-0.4-0.5-0.6-0.7c-0.2-0.1-0.6-0.2-0.9-0.2h-1.5v3.8h-1.3v-9.2h3.9    c1,0,1.8,0.2,2.3,0.7c0.5,0.5,0.8,1.1,0.8,2c0,0.7-0.2,1.3-0.6,1.7c-0.4,0.5-1,0.7-1.7,0.9c0.5,0.1,0.8,0.5,1.1,1L139.7,77.7z     M136,72.8c0.7,0,1.2-0.1,1.5-0.4s0.5-0.7,0.5-1.2s-0.2-1-0.5-1.2c-0.3-0.3-0.8-0.4-1.5-0.4h-2.4v3.2H136z"
   id="path32"
   style="fill:#00a960;fill-opacity:1" />
		<path
   class="st0"
   d="M143.2,77.2c-0.6-0.4-1.1-0.9-1.5-1.6c-0.3-0.7-0.5-1.5-0.5-2.5c0-1,0.2-1.8,0.5-2.5c0.3-0.7,0.8-1.3,1.5-1.6    c0.6-0.4,1.4-0.6,2.3-0.6c0.9,0,1.6,0.2,2.3,0.6c0.6,0.4,1.1,0.9,1.5,1.6c0.3,0.7,0.5,1.5,0.5,2.5c0,1-0.2,1.8-0.5,2.5    c-0.3,0.7-0.8,1.3-1.5,1.6c-0.6,0.4-1.4,0.6-2.3,0.6C144.6,77.8,143.9,77.6,143.2,77.2z M147.6,75.8c0.5-0.6,0.8-1.5,0.8-2.7    c0-1.2-0.3-2.1-0.8-2.7c-0.5-0.6-1.2-0.9-2.2-0.9c-0.9,0-1.6,0.3-2.1,0.9s-0.8,1.5-0.8,2.7c0,1.2,0.3,2.1,0.8,2.7    c0.5,0.6,1.2,0.9,2.1,0.9C146.4,76.7,147.1,76.4,147.6,75.8z"
   id="path34"
   style="fill:#00a960;fill-opacity:1" />
		<path
   class="st0"
   d="M152,77.7v-9.2h5.8v1.1h-4.5v2.9h4.3v1.1h-4.3v4.1H152z"
   id="path36"
   style="fill:#00a960;fill-opacity:1" />
		<path
   class="st0"
   d="M165.9,77.7l-1-2.3h-4.7l-1,2.3H158l4.1-9.2h1.1l4.1,9.2H165.9z M160.8,74.4h3.7l-1.9-4.4L160.8,74.4z"
   id="path38"
   style="fill:#00a960;fill-opacity:1" />
		<path
   class="st0"
   d="M176.3,77.7h-1.5l-1.6-3c-0.2-0.3-0.4-0.5-0.6-0.7c-0.2-0.1-0.6-0.2-0.9-0.2h-1.5v3.8h-1.3v-9.2h3.9    c1,0,1.8,0.2,2.3,0.7c0.5,0.5,0.8,1.1,0.8,2c0,0.7-0.2,1.3-0.6,1.7c-0.4,0.5-1,0.7-1.7,0.9c0.5,0.1,0.8,0.5,1.1,1L176.3,77.7z     M172.6,72.8c0.7,0,1.2-0.1,1.5-0.4s0.5-0.7,0.5-1.2s-0.2-1-0.5-1.2c-0.3-0.3-0.8-0.4-1.5-0.4h-2.4v3.2H172.6z"
   id="path40"
   style="fill:#00a960;fill-opacity:1" />
		<path
   class="st0"
   d="M186,68.5h1.1v9.2h-1.2l0-6.7l-2.7,5.2h-0.9l-2.8-5.1l0,6.6h-1.2v-9.2h1.1l3.3,6.4L186,68.5z"
   id="path42"
   style="fill:#00a960;fill-opacity:1" />
		<path
   class="st0"
   d="M190.7,77.5c-0.6-0.2-1.1-0.5-1.5-0.9l0.5-1c0.5,0.4,0.9,0.6,1.4,0.8c0.5,0.2,1,0.2,1.6,0.2    c0.7,0,1.2-0.1,1.6-0.4c0.4-0.3,0.6-0.6,0.6-1.1c0-0.4-0.2-0.7-0.5-0.9s-0.9-0.4-1.7-0.6c-0.7-0.2-1.3-0.3-1.8-0.5    c-0.5-0.2-0.8-0.5-1.1-0.8c-0.3-0.3-0.4-0.8-0.4-1.3c0-0.5,0.1-1,0.4-1.4s0.7-0.7,1.2-1c0.5-0.2,1.1-0.3,1.8-0.3    c0.6,0,1.2,0.1,1.8,0.3s1,0.5,1.4,0.8l-0.5,1c-0.4-0.3-0.9-0.6-1.3-0.8c-0.4-0.2-0.9-0.3-1.4-0.3c-0.7,0-1.2,0.1-1.6,0.4    c-0.4,0.3-0.6,0.7-0.6,1.1c0,0.4,0.2,0.7,0.5,0.9c0.3,0.2,0.9,0.4,1.6,0.6c0.8,0.2,1.4,0.4,1.9,0.5c0.5,0.2,0.9,0.4,1.1,0.8    c0.3,0.3,0.4,0.8,0.4,1.3c0,0.5-0.1,1-0.4,1.4c-0.3,0.4-0.7,0.7-1.2,0.9c-0.5,0.2-1.2,0.3-1.9,0.3    C191.9,77.8,191.3,77.7,190.7,77.5z"
   id="path44"
   style="fill:#00a960;fill-opacity:1" />
	</g>
	<g
   id="g54">
		<g
   id="XMLID_13_"
   style="fill:#00a960;fill-opacity:1">
			<path
   class="st0"
   d="M191.5,58.4c-5.3,0-10.1-2.7-12.9-6.8c-2.9,4.1-7.6,6.7-12.9,6.7l-8.7,0c-6.2,0-11.2-5-11.2-11.2V22.5     c0-1.8-1.5-3.3-3.3-3.3c-1.3,0-2.5,0.8-3,1.9c-0.1,0.1-0.2,0.3-0.2,0.4l-6.3,9.1c-0.5,0.8-1.4,1.2-2.3,1.2c0,0,0,0,0,0     c-0.9,0-1.8-0.5-2.3-1.2l-6.4-9.1c-0.1-0.1-0.2-0.3-0.2-0.4c-0.5-1.2-1.7-1.9-3-1.9c-1.8,0-3.3,1.5-3.3,3.3v24.7     c0,6.2-5,11.2-11.2,11.2H80.2c-1.3,0-2.4-0.9-2.7-2.1s0.2-2.6,1.4-3.2c5.7-3.2,9.3-9.2,9.3-15.8c0-4.9-1.9-9.5-5.5-13     c-3.5-3.4-8.2-5.2-13.1-5.1C60.3,19.5,52.6,27,52,36.2c-0.4,6.9,3,13.3,8.9,16.7l0.4,0.2c1.1,0.6,1.7,1.9,1.4,3.2     s-1.5,2.1-2.8,2.1H37.5c-4.2,0-8.2-2-10.8-5.3L15.8,39.3c-0.9-1.1-1.2-2.5-0.9-3.8s1.1-2.5,2.3-3.2l8.7-5.2c1.8-1.1,3-3.1,3-5.3     c0-1.4-1.1-2.5-2.5-2.5H10.6c-1.3,0-2.3,1-2.3,2.3v34c0,1.6-1.3,2.8-2.8,2.8s-2.8-1.3-2.8-2.8v-34c0-4.4,3.6-8,8-8h15.7     c4.5,0,8.2,3.7,8.2,8.2c0,4.1-2.2,8-5.8,10.1l-7.9,4.7l10.3,13c1.5,2,3.9,3.1,6.3,3.1H52c-4-4.6-6-10.6-5.7-16.9     C47.1,23.7,57.2,14,69.3,13.6c6.5-0.2,12.6,2.2,17.3,6.7c4.7,4.5,7.2,10.6,7.2,17c0,5.7-2.1,11.2-5.7,15.4h15.9     c3.1,0,5.5-2.5,5.5-5.5V22.5c0-5,4-9,9-9c3.4,0,6.5,1.9,8,4.9l3.9,5.6l3.9-5.6c1.5-3,4.6-4.9,8-4.9c5,0,9,4,9,9v24.7     c0,3.1,2.5,5.5,5.5,5.5l8.7,0c5.6,0,10.1-4.5,10.1-10.1V25c0-1.6,1.3-2.8,2.8-2.8s2.8,1.3,2.8,2.8v17.7c0,5.6,4.5,10.1,10.1,10.1     c1.6,0,2.8,1.3,2.8,2.8S193,58.4,191.5,58.4z"
   id="path48"
   style="fill:#00a960;fill-opacity:1" />
			<path
   id="XMLID_15_"
   class="st1"
   d="M31.7,26.3"
   style="fill:#00a960;fill-opacity:1" />
			<path
   class="st0"
   d="M178.5,27.8c-0.6,0-1.1-0.2-1.6-0.5c-0.8-0.5-1.2-1.4-1.2-2.4l0.1-4.2c0-5.7,3.2-10.6,8.3-12.4l9.5-3.5     c0.9-0.3,1.8-0.2,2.6,0.3c0.8,0.5,1.2,1.4,1.2,2.3v3.2c0,6.2-3.9,11.7-9.8,13.7l-8,3.2C179.2,27.8,178.9,27.8,178.5,27.8z      M191.6,11.6l-5.7,2.1c-2.7,1-4.5,3.8-4.5,7.1l0,0l4.1-1.6c0,0,0.1,0,0.1,0C189,18,191.3,15.1,191.6,11.6z"
   id="path51"
   style="fill:#00a960;fill-opacity:1" />
		</g>
	</g>
</g>
</svg>
